<?xml version="1.0" standalone="no"?>
<!DOCTYPE svg PUBLIC "-//W3C//DTD SVG 1.1//EN" "http://www.w3.org/Graphics/SVG/1.1/DTD/svg11.dtd" >
<svg xmlns="http://www.w3.org/2000/svg" xmlns:xlink="http://www.w3.org/1999/xlink" version="1.1">
<metadata>
Created by 2FoamBoards using FontForge 20200511 at Mon Jul 26 22:47:40 2021
</metadata>
<defs>
<font id="octopuzzlerType" horiz-adv-x="448" >
  <font-face 
    font-family="octopuzzlerType"
    font-weight="500"
    font-stretch="normal"
    units-per-em="1024"
    panose-1="2 0 6 3 0 0 0 0 0 0"
    ascent="768"
    descent="-256"
    x-height="256"
    cap-height="448"
    bbox="0 -128 448 682"
    underline-thickness="51"
    underline-position="-153"
    unicode-range="U+0020-3000"
  />
<missing-glyph horiz-adv-x="374" 
d="M34 0v682h272v-682h-272zM68 34h204v614h-204v-614z" />
    <glyph glyph-name=".notdef" horiz-adv-x="374" 
d="M34 0v682h272v-682h-272zM68 34h204v614h-204v-614z" />
    <glyph glyph-name=".null" horiz-adv-x="0" 
 />
    <glyph glyph-name="nonmarkingreturn" horiz-adv-x="341" 
 />
 
    <glyph unicode="#" horiz-adv-x="488" 
d="M276 64h-64h-64h-64v-64h64h64h64h64h64v64h-64h-64zM468 64v64v64v64v64v64h-64v-64v-64v-64v-64v-64h64zM84 128v64v64v64v64h-64v-64v-64v-64v-64v-64h64v64zM404 448h-64h-64h-64h-64h-64v-64h64h64h64h64h64v64z" />

    <glyph unicode="$" horiz-adv-x="146" 
d="M-146 -42c163 4 270 118 272 270c3 181 -139 281 -275 279c-159 -2 -287 -144 -279 -292c7 -141 118 -255 282 -257zM-158 418h1c96 -1 194 -95 190 -191c-3 -104 -71 -180 -191 -187c-92 -5 -190 89 -187 175c3 123 78 203 187 203z" />
    <glyph unicode="%" horiz-adv-x="140" 
d="M-277 -56c12 3 24 5 36 7c104 6 208 12 313 16c39 1 48 25 48 57c-3 94 -7 188 -11 283c-1 33 -2 65 -3 98c-2 47 -11 58 -57 58c-94 1 -188 -1 -281 -1c-40 1 -79 3 -119 3c-48 0 -68 -15 -68 -62c0 -99 6 -198 10 -297c1 -31 4 -61 10 -91c6 -24 15 -48 25 -71h97z
M46 43l-358 -12l-40 345l323 11c14 2 27 2 41 0c8 -2 20 -12 20 -19c5 -107 9 -213 14 -325z" />
    <glyph unicode="&#38;" horiz-adv-x="145" 
d="M-377 405v-80c3 -14 5 -28 7 -42c5 -94 11 -189 14 -283c1 -30 17 -49 42 -51c18 -1 39 11 56 22c121 82 241 166 362 248c26 17 25 38 10 58c-12 14 -27 25 -43 32c-117 57 -235 112 -352 170c-43 20 -86 0 -90 -47c-1 -9 -4 -18 -6 -27zM-275 54l-30 348l328 -155z" />

    <glyph unicode="*" horiz-adv-x="424" 
d="M212 0v64v64v64v64h64v-64h64v-64h64v64h-64v64v64h-64v64h-64v64h-64v-64h-64v-64h-64v-64v-64h-64v-64h64v64h64v64h64v-64v-64v-64v-64h64z" />
    <glyph unicode="^" horiz-adv-x="424" 
d="M212 -64v64v64v64h64v-64h64v-64h64v64h-64v64v64h-64v64h-64v64h-64v-64h-64v-64h-64v-64v-64h-64v-64h64v64h64v64h64v-64v-64v-64h64zM404 256v64h-64v-64h64zM20 256v64h-64v-64h64zM340 384h-64v-64h64v64zM84 320v64h-64v-64h64zM276 448h-64v64h-64v-64h-64v-64
h64h64h64v64z" />

    <glyph unicode="," horiz-adv-x="424" 
d="M212 0v64h64v64h64v64v64h-64v-64h-64v64v64v64v64h-64v-64v-64v-64v-64h-64v64h-64v-64v-64h64v-64h64v-64h64zM404 256v64h-64v-64h64zM20 320h-64v-64h64v64z" />
    <glyph unicode="_" horiz-adv-x="424" 
d="M212 -64v64h64v64h-64h-64h-64v-64h64v-64h64zM212 128v64h64v64h64v64v64h-64v-64h-64v64v64v64h-64v-64v-64v-64h-64v64h-64v-64v-64h64v-64h64v-64h64zM340 64v64h-64v-64h64zM84 128h-64v-64h64v64zM404 128v64h-64v-64h64zM20 192h-64v-64h64v64zM404 384v64h-64
v-64h64zM20 448h-64v-64h64v64z" />

    <glyph unicode="(" horiz-adv-x="424" 
d="M276 0v64h-64v-64h64zM212 128h-64v64h64h64h64h64v64h-64h-64h-64h-64v64h64v64h-64h-64v-64h-64v-64h-64v-64h64v-64h64v-64h64h64v64zM276 384v64h-64v-64h64z" />
    <glyph unicode="&#60;" horiz-adv-x="552" 
d="M468 0v64h-64v-64h64zM212 0v64h-64v-64h64zM404 128h-64v64h64h64h64v64h-64h-64h-64v64h64v64h-64h-64v-64h-64v-64h-64v-64h64v-64h64v-64h64h64v64zM148 128h-64v-64h64v64zM84 192v64v64h-64v-64h-64v-64h64v-64h64v64zM148 320v64h-64v-64h64zM468 384v64h-64v-64
h64zM212 384v64h-64v-64h64z" />

    <glyph unicode=")" horiz-adv-x="424" 
d="M148 0v64h-64v-64h64zM212 64h64v64h64v64h64v64h-64v64h-64v64h-64h-64v-64h64v-64h-64h-64h-64h-64v-64h64h64h64h64v-64h-64v-64h64zM148 448h-64v-64h64v64z" />
    <glyph unicode="&#62;" horiz-adv-x="552" 
d="M340 0v64h-64v-64h64zM84 0v64h-64v-64h64zM404 64v64h-64v-64h64zM148 64h64v64h64v64h64v64h-64v64h-64v64h-64h-64v-64h64v-64h-64h-64h-64v-64h64h64h64v-64h-64v-64h64zM468 128v64h64v64h-64v64h-64v-64v-64v-64h64zM404 384h-64v-64h64v64zM340 448h-64v-64h64v64
zM84 448h-64v-64h64v64z" />

    <glyph glyph-name="space" unicode=" " horiz-adv-x="384" 
 />
    <glyph glyph-name="exclam" unicode="!" horiz-adv-x="192" 
d="M0 0v64h64v-64h-64zM0 128v64v64v64v64v64h64v-64v-64v-64v-64v-64h-64z" />
    <glyph glyph-name="quotedbl" unicode="&#x22;" horiz-adv-x="320" 
d="M128 320v64v64h64v-64v-64h-64zM0 320v64v64h64v-64v-64h-64z" />
    <glyph glyph-name="plus" unicode="+" 
d="M128 64v64v64h-64h-64v64h64h64v64v64h64v-64v-64h64h64v-64h-64h-64v-64v-64h-64z" />
    <glyph glyph-name="hyphen" unicode="-" 
d="M256 256h64v-64h-64h-64h-64h-64h-64v64h64h64h64h64z" />
    <glyph glyph-name="period" unicode="." horiz-adv-x="192" 
d="M0 0v64h64v-64h-64z" />
    <glyph glyph-name="slash" unicode="/" horiz-adv-x="576" 
d="M64 0h-64v64h64v64h64v-64v-64h-64zM128 128v64h64v-64h-64zM192 192v64h64v-64h-64zM256 256v64h64v-64h-64zM320 320v64v64h64h64v-64h-64v-64h-64z" />
    <glyph glyph-name="zero" unicode="0" 
d="M192 64h64v-64h-64h-64h-64v64h64h64zM256 64v64v64v64h-64v-64h-64v-64h-64v-64h-64v64v64v64v64v64h64v-64v-64v-64h64v64h64v64h64v64h64v-64v-64v-64v-64v-64h-64zM256 384h-64h-64h-64v64h64h64h64v-64z" />
    <glyph glyph-name="one" unicode="1" 
d="M0 256v64h64v-64h-64zM256 64h64v-64h-64h-64h-64h-64h-64v64h64h64v64v64v64v64h-64v64h64v64h64v-64v-64v-64v-64v-64v-64h64z" />
    <glyph glyph-name="two" unicode="2" 
d="M0 256v64v64h64v-64v-64h-64zM256 64h64v-64h-64h-64h-64h-64h-64v64v64h64v-64h64h64h64zM128 192h64v-64h-64h-64v64h64zM192 192v64h64v-64h-64zM256 256v64v64h64v-64v-64h-64zM256 384h-64h-64h-64v64h64h64h64v-64z" />
    <glyph glyph-name="three" unicode="3" 
d="M0 320v64h64v-64h-64zM192 64h64v-64h-64h-64h-64v64h64h64zM256 64v64v64h64v-64v-64h-64zM64 64h-64v64h64v-64zM256 192h-64h-64v64h64h64v-64zM256 256v64v64h64v-64v-64h-64zM256 384h-64h-64h-64v64h64h64h64v-64z" />
    <glyph glyph-name="four" unicode="4" 
d="M192 0v64v64v64h-64h-64h-64v64v64v64v64h64v-64v-64v-64h64h64v64v64v64h64v-64v-64v-64h64v-64h-64v-64v-64v-64h-64z" />
    <glyph glyph-name="five" unicode="5" 
d="M192 64h64v-64h-64h-64h-64v64h64h64zM256 64v64v64h64v-64v-64h-64zM64 64h-64v64h64v-64zM256 192h-64h-64v64h64h64v-64zM128 256h-64h-64v64v64v64h64h64h64h64h64v-64h-64h-64h-64h-64v-64h64v-64z" />
    <glyph glyph-name="six" unicode="6" 
d="M256 320v64h64v-64h-64zM192 64h64v-64h-64h-64h-64v64h64h64zM256 64v64v64h64v-64v-64h-64zM64 64h-64v64v64v64v64v64h64v-64v-64h64h64h64v-64h-64h-64h-64v-64v-64zM256 384h-64h-64h-64v64h64h64h64v-64z" />
    <glyph glyph-name="seven" unicode="7" 
d="M64 0v64v64h64v-64v-64h-64zM128 128v64v64h64v64h64v-64v-64h-64v-64h-64zM256 320v64h-64h-64h-64h-64v64h64h64h64h64h64v-64v-64h-64z" />
    <glyph glyph-name="eight" unicode="8" 
d="M192 64h64v-64h-64h-64h-64v64h64h64zM256 64v64v64h64v-64v-64h-64zM64 64h-64v64v64h64v-64v-64zM256 192h-64h-64h-64v64h64h64h64v-64zM256 256v64v64h64v-64v-64h-64zM64 256h-64v64v64h64v-64v-64zM256 384h-64h-64h-64v64h64h64h64v-64z" />
    <glyph glyph-name="nine" unicode="9" 
d="M192 64h64v-64h-64h-64h-64v64h64h64zM256 64v64v64h-64h-64h-64v64h64h64h64v64v64h64v-64v-64v-64v-64v-64h-64zM64 64h-64v64h64v-64zM64 256h-64v64v64h64v-64v-64zM256 384h-64h-64h-64v64h64h64h64v-64z" />
    <glyph glyph-name="colon" unicode=":" horiz-adv-x="192" 
d="M0 64v64h64v-64h-64zM0 192v64h64v-64h-64z" />
    <glyph glyph-name="semicolon" unicode=";" horiz-adv-x="192" 
d="M0 -64v64v64h64v-64v-64h-64zM0 192v64h64v-64h-64z" />
    <glyph glyph-name="equal" unicode="=" 
d="M256 192h64v-64h-64h-64h-64h-64h-64v64h64h64h64h64zM256 320h64v-64h-64h-64h-64h-64h-64v64h64h64h64h64z" />
    <glyph glyph-name="question" unicode="?" horiz-adv-x="384" 
d="M64 0v64h64v-64h-64zM64 128v64v64h64h64v-64h-64v-64h-64zM0 320v64h64v-64h-64zM192 256v64v64h64v-64v-64h-64zM192 384h-64h-64v64h64h64v-64z" />
    <glyph glyph-name="at" unicode="@" horiz-adv-x="576" 
d="M384 64h64v-64h-64h-64h-64h-64h-64h-64v64h64h64h64h64h64zM64 64h-64v64v64v64v64v64h64v-64v-64v-64v-64v-64zM320 128h-64h-64h-64v64v64v64h64h64h64v-64v-64h64v-64h-64zM384 192v64v64v64h64v-64v-64v-64h-64zM256 192v64h-64v-64h64zM384 384h-64h-64h-64h-64
h-64v64h64h64h64h64h64v-64z" />
    <glyph glyph-name="A" unicode="A" 
d="M256 0v64v64v64h-64h-64h-64v-64v-64v-64h-64v64v64v64v64v64v64h64v64h64h64h64v-64h64v-64v-64v-64v-64v-64v-64h-64zM192 256h64v64h-64v64h-64v-64h-64v-64h64h64z" />
    <glyph glyph-name="B" unicode="B" 
d="M192 64h64v64h-64v64h-64h-64v-64v-64h64h64zM192 0h-64h-64h-64v64v64v64v64v64v64h64v-64v-64h64h64v-64h64h64v-64v-64h-64v-64h-64zM192 256v64v64h-64h-64v64h64h64h64v-64v-64v-64h-64z" />
    <glyph glyph-name="C" unicode="C" horiz-adv-x="512" 
d="M320 320v64h64v-64h-64zM256 64h64v-64h-64h-64h-64h-64v64h-64v64v64v64v64v64h64v64h64h64h64h64v-64h-64h-64h-64v-64h-64v-64v-64v-64h64v-64h64h64zM320 64v64h64v-64h-64z" />
    <glyph glyph-name="D" unicode="D" 
d="M192 0h-64h-64h-64v64v64v64v64v64v64v64h64h64h64h64v-64h64v-64v-64v-64v-64v-64h-64v-64h-64zM128 64h64v64h64v64v64v64h-64v64h-64h-64v-64v-64v-64v-64v-64h64z" />
    <glyph glyph-name="E" unicode="E" horiz-adv-x="384" 
d="M192 64h64v-64h-64h-64h-64v64h64h64zM64 64h-64v64v64v64v64v64h64v-64v-64h64h64v-64h-64h-64v-64v-64zM192 448h64v-64h-64h-64h-64v64h64h64z" />
    <glyph glyph-name="F" unicode="F" horiz-adv-x="384" 
d="M0 0v64v64v64v64v64v64h64v-64v-64h64h64v-64h-64h-64v-64v-64v-64h-64zM192 448h64v-64h-64h-64h-64v64h64h64z" />
    <glyph glyph-name="G" unicode="G" 
d="M256 320v64h64v-64h-64zM192 64h64v-64h-64h-64h-64v64h64h64zM256 64v64h-64h-64v64h64h64h64v-64v-64h-64zM64 64h-64v64v64v64v64v64h64v-64v-64v-64v-64v-64zM256 384h-64h-64h-64v64h64h64h64v-64z" />
    <glyph glyph-name="H" unicode="H" 
d="M256 0v64v64v64h-64h-64h-64v-64v-64v-64h-64v64v64v64v64v64v64v64h64v-64v-64v-64h64h64h64v64v64v64h64v-64v-64v-64v-64v-64v-64v-64h-64z" />
    <glyph glyph-name="I" unicode="I" 
d="M256 64h64v-64h-64h-64h-64h-64h-64v64h64h64v64v64v64v64v64h-64h-64v64h64h64h64h64h64v-64h-64h-64v-64v-64v-64v-64v-64h64z" />
    <glyph glyph-name="J" unicode="J" 
d="M192 64h64v-64h-64h-64h-64v64h64h64zM256 64v64v64v64v64v64v64h64v-64v-64v-64v-64v-64v-64h-64zM64 64h-64v64v64h64v-64v-64z" />
    <glyph glyph-name="K" unicode="K" 
d="M256 0v64v64h64v-64v-64h-64zM0 0v64v64v64v64v64v64v64h64v-64v-64v-64h64h64v-64h64v-64h-64h-64v64h-64v-64v-64v-64h-64zM192 256v64h64v-64h-64zM256 320v64v64h64v-64v-64h-64z" />
    <glyph glyph-name="L" unicode="L" 
d="M256 64h64v-64h-64h-64h-64h-64h-64v64v64v64v64v64v64v64h64v-64v-64v-64v-64v-64v-64h64h64h64z" />
    <glyph glyph-name="M" unicode="M" horiz-adv-x="576" 
d="M384 0v64v64v64v64v64h-64v-64v-64h-64v-64h-64v64h64v64v64h64v64h64v64h64v-64v-64v-64v-64v-64v-64v-64h-64zM0 0v64v64v64v64v64v64v64h64v-64h64v-64h64v-64v-64h-64v64v64h-64v-64v-64v-64v-64v-64h-64z" />
    <glyph glyph-name="N" unicode="N" horiz-adv-x="512" 
d="M320 0v64h-64v64h64v64v64v64v64v64h64v-64v-64v-64v-64v-64v-64v-64h-64zM0 0v64v64v64v64v64v64v64h64v-64h64v-64h64v-64h64v-64v-64h-64v64h-64v64v64h-64v-64v-64v-64v-64v-64h-64z" />
    <glyph glyph-name="O" unicode="O" horiz-adv-x="512" 
d="M256 0h-64h-64h-64v64h-64v64v64v64v64v64h64v64h64h64h64h64v-64h64v-64v-64v-64v-64v-64h-64v-64h-64zM192 64h64v64h64v64v64v64h-64v64h-64h-64v-64h-64v-64v-64v-64h64v-64h64z" />
    <glyph glyph-name="P" unicode="P" 
d="M0 0v64v64v64v64v64v64v64h64h64h64h64v-64h64v-64v-64h-64v64v64h-64h-64h-64v-64v-64h64h64h64v-64h-64h-64h-64v-64v-64v-64h-64z" />
    <glyph glyph-name="Q" unicode="Q" horiz-adv-x="512" 
d="M320 64h64v-64h-64h-64v64h64zM256 64h-64h-64h-64v64h64v64h64v-64h64v-64zM256 128v64v64v64v64h64v-64v-64v-64v-64h-64zM64 128h-64v64v64v64v64h64v-64v-64v-64v-64zM256 384h-64h-64h-64v64h64h64h64v-64z" />
    <glyph glyph-name="R" unicode="R" 
d="M256 0v64h64v-64h-64zM0 0v64v64v64v64v64v64v64h64h64h64h64v-64h64v-64v-64h-64v64v64h-64h-64h-64v-64v-64h64h64h64v-64h-64v-64h64v-64h-64v64h-64v64h-64v-64v-64v-64h-64z" />
    <glyph glyph-name="S" unicode="S" 
d="M256 320v64h64v-64h-64zM192 64h64v-64h-64h-64h-64v64h64h64zM256 64v64v64h64v-64v-64h-64zM64 64h-64v64h64v-64zM256 192h-64h-64h-64v64h64h64h64v-64zM64 256h-64v64v64h64v-64v-64zM256 384h-64h-64h-64v64h64h64h64v-64z" />
    <glyph glyph-name="T" unicode="T" 
d="M128 0v64v64v64v64v64v64h-64h-64v64h64h64h64h64h64v-64h-64h-64v-64v-64v-64v-64v-64v-64h-64z" />
    <glyph glyph-name="U" unicode="U" horiz-adv-x="512" 
d="M256 0h-64h-64h-64v64h-64v64v64v64v64v64v64h64v-64v-64v-64v-64v-64h64v-64h64h64v64h64v64v64v64v64v64h64v-64v-64v-64v-64v-64v-64h-64v-64h-64z" />
    <glyph glyph-name="V" unicode="V" horiz-adv-x="576" 
d="M192 0v64h64v-64h-64zM256 64v64v64h64v-64v-64h-64zM192 64h-64v64v64h64v-64v-64zM320 192v64v64h64v-64v-64h-64zM128 192h-64v64v64h64v-64v-64zM384 320v64v64h64v-64v-64h-64zM64 320h-64v64v64h64v-64v-64z" />
    <glyph glyph-name="W" unicode="W" horiz-adv-x="576" 
d="M320 0v64h-64v64v64h64v-64h64v-64v-64h-64zM64 0v64v64h64v64h64v-64v-64h-64v-64h-64zM384 128v64v64v64v64v64h64v-64v-64v-64v-64v-64h-64zM64 128h-64v64v64v64v64v64h64v-64v-64v-64v-64v-64zM256 192h-64v64v64h64v-64v-64z" />
    <glyph glyph-name="X" unicode="X" 
d="M256 0v64v64h64v-64v-64h-64zM0 0v64v64h64v-64v-64h-64zM256 128h-64v64h64v-64zM64 128v64h64v-64h-64zM192 192h-64v64h64v-64zM192 256v64h64v-64h-64zM128 256h-64v64h64v-64zM256 320v64v64h64v-64v-64h-64zM64 320h-64v64v64h64v-64v-64z" />
    <glyph glyph-name="Y" unicode="Y" 
d="M128 0v64v64v64h64v-64v-64v-64h-64zM192 192v64h64v-64h-64zM128 192h-64v64h64v-64zM256 256v64v64v64h64v-64v-64v-64h-64zM64 256h-64v64v64v64h64v-64v-64v-64z" />
    <glyph glyph-name="Z" unicode="Z" 
d="M256 64h64v-64h-64h-64h-64h-64h-64v64v64h64v-64h64h64h64zM64 128v64h64v-64h-64zM128 192v64h64v-64h-64zM192 256v64h64v-64h-64zM256 320v64h-64h-64h-64h-64v64h64h64h64h64h64v-64v-64h-64z" />
    <glyph glyph-name="bracketleft" unicode="[" horiz-adv-x="256" 
d="M64 0h-64v64v64v64v64v64v64v64h64h64v-64h-64v-64v-64v-64v-64v-64h64v-64h-64z" />
    <glyph glyph-name="backslash" unicode="\" horiz-adv-x="576" 
d="M384 0h-64v64v64h64v-64h64v-64h-64zM320 128h-64v64h64v-64zM256 192h-64v64h64v-64zM192 256h-64v64h64v-64zM128 320h-64v64h-64v64h64h64v-64v-64z" />
    <glyph glyph-name="bracketright" unicode="]" horiz-adv-x="256" 
d="M64 0h-64v64h64v64v64v64v64v64h-64v64h64h64v-64v-64v-64v-64v-64v-64v-64h-64z" />
    <glyph glyph-name="grave" unicode="`" horiz-adv-x="256" 
d="M64 320v64h64v-64h-64zM64 384h-64v64h64v-64z" />
    <glyph glyph-name="a" unicode="a" horiz-adv-x="384" 
d="M192 0h-64h-64h-64v64v64h64v64h64h64v64h64v-64v-64v-64v-64h-64zM128 64h64v64h-64h-64v-64h64zM192 256h-64h-64h-64v64h64h64h64v-64z" />
    <glyph glyph-name="b" unicode="b" horiz-adv-x="384" 
d="M128 64h64v64v64v64h-64h-64v-64v-64v-64h64zM128 0h-64h-64v64v64v64v64v64v64v64h64v-64v-64h64h64v-64h64v-64v-64v-64h-64v-64h-64z" />
    <glyph glyph-name="c" unicode="c" horiz-adv-x="384" 
d="M192 192v64h64v-64h-64zM128 64h64v-64h-64h-64v64h64zM192 64v64h64v-64h-64zM64 64h-64v64v64v64h64v-64v-64v-64zM192 256h-64h-64v64h64h64v-64z" />
    <glyph glyph-name="d" unicode="d" horiz-adv-x="384" 
d="M192 0h-64h-64v64h-64v64v64v64h64v64h64h64v64v64h64v-64v-64v-64v-64v-64v-64v-64h-64zM128 64h64v64v64v64h-64h-64v-64v-64v-64h64z" />
    <glyph glyph-name="e" unicode="e" horiz-adv-x="384" 
d="M192 64h64v-64h-64h-64h-64v64h64h64zM64 64h-64v64v64v64h64v64h64h64h64v-64v-64v-64h-64h-64h-64v-64zM128 192h64v64h-64h-64v-64h64z" />
    <glyph glyph-name="f" unicode="f" horiz-adv-x="320" 
d="M0 0v64v64v64v64v64v64h64v-64v-64h64h64v-64h-64h-64v-64v-64v-64h-64zM128 320v64h-64v64h64h64v-64v-64h-64z" />
    <glyph glyph-name="g" unicode="g" horiz-adv-x="384" 
d="M128 -64h64v-64h-64h-64h-64v64h64h64zM192 -64v64h-64h-64v64h-64v64v64v64h64v64h64h64h64v-64v-64v-64v-64v-64v-64h-64zM128 64h64v64v64v64h-64h-64v-64v-64v-64h64z" />
    <glyph glyph-name="h" unicode="h" horiz-adv-x="384" 
d="M192 0v64v64v64h64v-64v-64v-64h-64zM0 0v64v64v64v64v64v64v64h64v-64v-64v-64h64h64v-64h-64h-64v-64v-64v-64h-64z" />
    <glyph glyph-name="i" unicode="i" horiz-adv-x="192" 
d="M0 0v64v64v64v64h64v-64v-64v-64v-64h-64zM0 384v64h64v-64h-64z" />
    <glyph glyph-name="j" unicode="j" horiz-adv-x="256" 
d="M0 -128v64h64v-64h-64zM64 384v64h64v-64h-64zM64 -64v64v64v64v64v64h64v-64v-64v-64v-64v-64h-64z" />
    <glyph glyph-name="k" unicode="k" horiz-adv-x="384" 
d="M192 0v64h64v-64h-64zM0 0v64v64v64v64v64v64v64h64v-64v-64v-64h64v-64h64v-64v-64h-64v64v64h-64v-64v-64v-64h-64zM128 256v64v64h64v-64v-64h-64z" />
    <glyph glyph-name="l" unicode="l" horiz-adv-x="256" 
d="M64 0v64h64v-64h-64zM64 64h-64v64v64v64v64v64v64h64v-64v-64v-64v-64v-64v-64z" />
    <glyph glyph-name="m" unicode="m" 
d="M256 0v64v64v64v64h64v-64v-64v-64v-64h-64zM0 0v64v64v64v64v64h64h64v-64h64v-64v-64h-64v64v64h-64v-64v-64v-64v-64h-64zM256 256h-64v64h64v-64z" />
    <glyph glyph-name="n" unicode="n" horiz-adv-x="384" 
d="M192 0v64v64v64v64h64v-64v-64v-64v-64h-64zM0 0v64v64v64v64v64h64h64h64v-64h-64h-64v-64v-64v-64v-64h-64z" />
    <glyph glyph-name="o" unicode="o" horiz-adv-x="384" 
d="M128 64h64v-64h-64h-64v64h64zM192 64v64v64v64h64v-64v-64v-64h-64zM64 64h-64v64v64v64h64v-64v-64v-64zM192 256h-64h-64v64h64h64v-64z" />
    <glyph glyph-name="p" unicode="p" horiz-adv-x="384" 
d="M0 -128v64v64v64v64v64v64v64h64h64h64v-64h64v-64v-64v-64h-64v64v64v64h-64h-64v-64v-64v-64h64h64v-64h-64h-64v-64v-64h-64z" />
    <glyph glyph-name="q" unicode="q" horiz-adv-x="384" 
d="M192 -128v64v64h-64h-64v64h-64v64v64v64h64v64h64h64h64v-64v-64v-64v-64v-64v-64v-64h-64zM128 64h64v64v64v64h-64h-64v-64v-64v-64h64z" />
    <glyph glyph-name="r" unicode="r" horiz-adv-x="384" 
d="M0 0v64v64v64v64h64v-64v-64v-64v-64h-64zM192 192v64h-64h-64v64h64h64h64v-64v-64h-64z" />
    <glyph glyph-name="s" unicode="s" horiz-adv-x="384" 
d="M128 64h64v-64h-64h-64h-64v64h64h64zM192 64v64h64v-64h-64zM192 128h-64h-64v64h64h64v-64zM64 192h-64v64h64v-64zM192 320h64v-64h-64h-64h-64v64h64h64z" />
    <glyph glyph-name="t" unicode="t" horiz-adv-x="320" 
d="M64 0v64v64v64h-64v64h64v64v64v64h64v-64v-64v-64h64v-64h-64v-64v-64v-64h-64z" />
    <glyph glyph-name="u" unicode="u" horiz-adv-x="384" 
d="M192 0h-64h-64v64h64h64v64v64v64v64h64v-64v-64v-64v-64v-64h-64zM64 64h-64v64v64v64v64h64v-64v-64v-64v-64z" />
    <glyph glyph-name="v" unicode="v" 
d="M128 0v64h64v-64h-64zM192 64v64v64h64v-64v-64h-64zM128 64h-64v64v64h64v-64v-64zM256 192v64v64h64v-64v-64h-64zM64 192h-64v64v64h64v-64v-64z" />
    <glyph glyph-name="w" unicode="w" 
d="M192 0v64h64v-64h-64zM64 0v64h64v-64h-64zM256 64v64v64v64h64v-64v-64v-64h-64zM192 64h-64v64v64h64v-64v-64zM64 64h-64v64v64v64h64v-64v-64v-64z" />
    <glyph glyph-name="x" unicode="x" 
d="M256 0v64h64v-64h-64zM0 0v64h64v-64h-64zM256 64h-64v64h64v-64zM64 64v64h64v-64h-64zM192 128h-64v64h64v-64zM192 192v64h64v-64h-64zM128 192h-64v64h64v-64zM256 256v64h64v-64h-64zM64 256h-64v64h64v-64z" />
    <glyph glyph-name="y" unicode="y" horiz-adv-x="384" 
d="M128 -64h64v-64h-64h-64h-64v64h64h64zM192 -64v64h-64h-64v64h64h64v64v64v64v64h64v-64v-64v-64v-64v-64v-64h-64zM64 64h-64v64v64v64v64h64v-64v-64v-64v-64z" />
    <glyph glyph-name="z" unicode="z" horiz-adv-x="384" 
d="M192 64h64v-64h-64h-64h-64h-64v64v64h64v-64h64h64zM128 192h64v-64h-64h-64v64h64zM192 192v64h-64h-64h-64v64h64h64h64h64v-64v-64h-64z" />
    <glyph glyph-name="braceleft" unicode="{" horiz-adv-x="320" 
d="M128 0v64h64v-64h-64zM128 64h-64v64v64h64v-64v-64zM64 192h-64v64h64v-64zM64 256v64v64v64h64v-64v-64v-64h-64zM128 448v64h64v-64h-64z" />
    <glyph glyph-name="bar" unicode="|" horiz-adv-x="192" 
d="M0 0v64v64v64v64v64v64v64h64v-64v-64v-64v-64v-64v-64v-64h-64z" />
    <glyph glyph-name="braceright" unicode="}" horiz-adv-x="320" 
d="M0 0v64h64v-64h-64zM64 64v64v64h64v-64v-64h-64zM128 192v64h64v-64h-64zM128 256h-64v64v64h64v-64v-64zM64 384h-64v64h64v-64z" />
    <glyph glyph-name="asciitilde" unicode="~" horiz-adv-x="512" 
d="M0 192v64h64v-64h-64zM256 256h64v-64h-64h-64v64h64zM320 256v64h64v-64h-64zM192 256h-64h-64v64h64h64v-64z" />
    <glyph glyph-name="uni00A0" unicode="&#xa0;" horiz-adv-x="384" 
 />
    <glyph glyph-name="exclamdown" unicode="&#xa1;" horiz-adv-x="192" 
d="M0 0v64v64v64v64v64h64v-64v-64v-64v-64v-64h-64zM0 384v64h64v-64h-64z" />
    <glyph glyph-name="cent" unicode="&#xa2;" 
d="M128 -64v64h-64v64h-64v64v64v64h64v64h64v64h64v-64h64v-64h64v-64h-64v64h-64v-64v-64v-64h64v-64h-64v-64h-64zM256 64v64h64v-64h-64zM128 64v64v64v64h-64v-64v-64v-64h64z" />
    <glyph glyph-name="sterling" unicode="&#xa3;" 
d="M256 256v64v64h64v-64v-64h-64zM256 64h64v-64h-64h-64h-64h-64h-64v64h64v64h-64v64h64v64v64v64h64v-64v-64v-64h64h64v-64h-64h-64v-64h64h64zM256 384h-64h-64v64h64h64v-64z" />
    <glyph glyph-name="currency" unicode="&#xa4;" horiz-adv-x="512" 
d="M320 64v64h64v-64h-64zM0 64v64h64v-64h-64zM192 128h64v-64h-64h-64v64h64zM320 128h-64v64v64h64v-64v-64zM128 128h-64v64v64h64v-64v-64zM320 256v64h64v-64h-64zM256 256h-64h-64v64h64h64v-64zM64 256h-64v64h64v-64z" />
    <glyph glyph-name="yen" unicode="&#xa5;" 
d="M128 0v64v64h-64v64h64v64h64v-64h64v-64h-64v-64v-64h-64zM192 256v64v64h64v-64v-64h-64zM128 256h-64v64v64h64v-64v-64zM256 384v64h64v-64h-64zM64 384h-64v64h64v-64z" />
    <glyph glyph-name="brokenbar" unicode="&#xa6;" horiz-adv-x="192" 
d="M0 -64v64v64v64h64v-64v-64v-64h-64zM0 320v64v64v64h64v-64v-64v-64h-64z" />
    <glyph glyph-name="section" unicode="&#xa7;" 
d="M256 320v64h64v-64h-64zM192 64h64v-64h-64h-64h-64v64h64h64zM256 64v64h-64h-64v64h64v64h64v-64h64v-64v-64h-64zM64 64h-64v64h64v-64zM128 192h-64v64h-64v64v64h64v-64h64h64v-64h-64v-64zM256 384h-64h-64h-64v64h64h64h64v-64z" />
    <glyph glyph-name="dieresis" unicode="&#xa8;" horiz-adv-x="320" 
d="M128 448v64h64v-64h-64zM0 448v64h64v-64h-64z" />
    <glyph glyph-name="copyright" unicode="&#xa9;" horiz-adv-x="576" 
d="M320 64h64v-64h-64h-64h-64h-64h-64v64h64h64h64h64zM384 64v64v64v64v64v64h64v-64v-64v-64v-64v-64h-64zM64 64h-64v64v64v64v64v64h64v-64v-64v-64v-64v-64zM256 192h64v-64h-64h-64h-64v64v64v64h64h64h64v-64h-64h-64v-64h64zM384 384h-64h-64h-64h-64h-64v64h64h64
h64h64h64v-64z" />
    <glyph glyph-name="Euro" unicode="&#x20ac;" horiz-adv-x="512" 
d="M320 320v64h64v-64h-64zM256 64h64v-64h-64h-64h-64v64h64h64zM320 64v64h64v-64h-64zM128 64h-64v64h-64v64h64v64h-64v64h64v64h64v-64h64h64v-64h-64h-64v-64h64h64v-64h-64h-64v-64zM320 384h-64h-64h-64v64h64h64h64v-64z" />
    <glyph glyph-name="uni3000" unicode="&#x3000;" horiz-adv-x="1024" 
 />
  </font>
</defs>
</svg>
